<?xml version="1.0" encoding="UTF-8" standalone="no"?>
<!-- Generator: Adobe Illustrator 15.1.0, SVG Export Plug-In . SVG Version: 6.00 Build 0)  -->

<svg
   xmlns:dc="http://purl.org/dc/elements/1.1/"
   xmlns:cc="http://creativecommons.org/ns#"
   xmlns:rdf="http://www.w3.org/1999/02/22-rdf-syntax-ns#"
   xmlns:svg="http://www.w3.org/2000/svg"
   xmlns="http://www.w3.org/2000/svg"
   xmlns:sodipodi="http://sodipodi.sourceforge.net/DTD/sodipodi-0.dtd"
   xmlns:inkscape="http://www.inkscape.org/namespaces/inkscape"
   version="1.1"
   id="Layer_1"
   x="0px"
   y="0px"
   width="458.24194"
   height="378.36337"
   viewBox="0 0 458.24194 378.36337"
   enable-background="new 0 0 612 792"
   xml:space="preserve"
   inkscape:version="0.48.3.1 r9886"
   sodipodi:docname="logo.svg"><metadata
   id="metadata23"><rdf:RDF><cc:Work
       rdf:about=""><dc:format>image/svg+xml</dc:format><dc:type
         rdf:resource="http://purl.org/dc/dcmitype/StillImage" /></cc:Work></rdf:RDF></metadata><defs
   id="defs21" /><sodipodi:namedview
   pagecolor="#ffffff"
   bordercolor="#666666"
   borderopacity="1"
   objecttolerance="10"
   gridtolerance="10"
   guidetolerance="10"
   inkscape:pageopacity="0"
   inkscape:pageshadow="2"
   inkscape:window-width="1280"
   inkscape:window-height="776"
   id="namedview19"
   showgrid="false"
   inkscape:zoom="1.21"
   inkscape:cx="229.12061"
   inkscape:cy="178.87987"
   inkscape:window-x="0"
   inkscape:window-y="24"
   inkscape:window-maximized="1"
   inkscape:current-layer="Layer_1"
   fit-margin-top="0"
   fit-margin-left="0"
   fit-margin-right="0"
   fit-margin-bottom="0" />
<g
   id="g3"
   transform="translate(-76.879386,-196.51648)">
	<g
   id="sunflower">
		<path
   d="m 316.86,330.517 c 0,0 -3.83,-31.757 -1.598,-36.459 -0.453,-0.269 1.146,-20.393 15.744,-6.339 0,0 16.521,13.979 19.231,19.795 0.387,1.426 4.908,-19.373 9.063,-24.14 -1.002,0.606 5.043,-10.86 9.355,-9.216 0.096,0.356 8.401,3.161 16.625,35.401 0.453,0.28 22.226,-31.399 27.887,-31.961 0.364,-0.089 8.353,-4.993 10.345,6.109 -0.133,0.231 3.629,17.201 1.922,36.956 0.369,-0.085 22.236,-19.058 44.438,-20.086 0.088,0.362 7.807,-0.491 6.949,8.637 -0.037,0.57 -1.396,6.388 -12.211,28.296 -0.093,-0.359 25.464,-8.428 27.155,-3.505 0,0 8.949,3.78 -15.844,34.271 0,0 42.385,1.264 36.308,0.987 0,0 16.125,3.822 3.216,14.248 -0.402,0.66 -3.199,8.346 -38.933,25.442 0.231,0.132 26.805,1.697 51.201,12.51 0.361,-0.097 14.849,8.479 2.308,15.213 0.233,0.141 -15.572,9.147 -46.32,14.452 -0.035,0.581 38.845,19.945 33.112,30.407 -0.359,0.084 -6.907,15.476 -56.619,0.535 0,0 31.578,52.982 18.062,58.23 -0.366,0.092 -8.423,7.662 -46.904,-17.494 0.503,-0.305 6.539,53.526 -4.725,51.988 0,0 -9.823,3.82 -33.213,-39.498 0.37,-0.085 -10.275,33.353 -19.376,33.394 0.474,0.271 -11.697,-0.297 -19.53,-47.063 -0.324,-0.489 -32.302,45.911 -42.246,39.127 -0.137,0.224 -12.633,-9.578 0.145,-51.676 0.229,0.129 -48.174,24.182 -51.99,13.496 0,0 -7.157,-9.34 13.588,-39.818 0.229,0.137 -39.893,5.916 -39.748,-1.517 0,0 -3.951,-10.465 40.653,-34.962 0.741,-0.167 -53.395,-13.516 -53.462,-28.299 0.058,0.933 -4.238,-11.531 50.746,-10.933 -0.098,-0.351 -42.792,-25.294 -34.998,-36.04 0.229,0.14 -1.213,-13.957 49.659,-5.558 -0.263,0.452 -27.765,-35.074 -19.594,-47.994 0.139,-0.224 6.027,-12.996 49.599,13.064 z"
   id="path6"
   inkscape:connector-curvature="0"
   style="fill:#ffde17" />
		<path
   d="m 327.364,351.623 c 0,0 -3.381,-25.368 -1.64,-29.147 -0.378,-0.208 0.703,-16.332 12.528,-5.223 0,0 13.349,11.023 15.582,15.652 0.322,1.146 3.729,-15.547 7.007,-19.407 -0.791,0.505 3.919,-8.722 7.382,-7.449 0.087,0.281 6.753,2.439 13.658,28.168 0.368,0.218 17.459,-25.343 21.977,-25.849 0.308,-0.074 6.641,-4.076 8.355,4.8 -0.12,0.181 3.063,13.717 1.904,29.551 0.289,-0.083 17.577,-15.469 35.329,-16.489 0.084,0.277 6.251,-0.479 5.651,6.825 -0.026,0.461 -1.053,5.14 -9.479,22.758 -0.078,-0.282 20.277,-6.985 21.687,-3.062 0,0 7.191,2.943 -12.328,27.564 0,0 33.911,0.624 29.034,0.444 0,0 12.95,2.918 2.739,11.375 -0.322,0.532 -2.468,6.696 -30.885,20.722 0.183,0.107 21.447,1.111 41.068,9.52 0.282,-0.065 11.969,6.647 2.006,12.154 0.185,0.106 -12.368,7.461 -36.911,11.997 -0.02,0.464 31.274,15.592 26.799,24.018 -0.292,0.076 -5.375,12.449 -45.293,0.961 0,0 25.8,42.09 15.046,46.419 -0.288,0.071 -6.655,6.21 -37.702,-13.556 0.396,-0.242 5.776,42.765 -3.251,41.638 0,0 -7.813,3.154 -26.956,-31.281 0.29,-0.075 -7.886,26.778 -15.153,26.897 0.364,0.215 -9.376,-0.123 -16.105,-37.472 -0.275,-0.392 -25.383,37.037 -33.409,31.71 -0.101,0.174 -10.194,-7.539 -0.391,-41.346 0.19,0.113 -38.288,19.814 -41.468,11.299 0,0 -5.797,-7.405 10.473,-31.991 0.185,0.11 -31.833,5.116 -31.793,-0.833 0,0 -3.27,-8.338 32.168,-28.357 0.57,-0.139 -42.856,-10.301 -43.066,-22.135 0.062,0.75 -3.504,-9.189 40.486,-9.223 -0.084,-0.289 -34.478,-19.827 -28.364,-28.504 0.189,0.104 -1.107,-11.15 39.672,-4.912 -0.213,0.354 -22.566,-27.803 -16.16,-38.224 0.115,-0.174 4.692,-10.439 39.803,9.988 z"
   id="path8"
   inkscape:connector-curvature="0"
   style="fill:#ffcb04" />
		<path
   d="m 406.577,376.516 c 27.501,16.265 36.739,50.898 20.646,77.365 -16.104,26.472 -51.449,34.75 -78.954,18.484 -27.502,-16.258 -36.756,-50.891 -20.657,-77.364 16.105,-26.468 51.453,-34.746 78.965,-18.485 z"
   id="path10"
   inkscape:connector-curvature="0"
   style="fill:#603913" />
	</g>
	<g
   id="gear">
		<path
   d="m 136.771,233.095 0.462,-23.317 c 0,0 4.447,-16.745 16.505,-6.168 0.665,1.098 16.286,16.071 16.286,16.071 0,0 10.494,9.032 19.409,-3.306 0.452,-0.432 24.298,-41.62 28.428,-4.09 0.226,-0.215 3.458,36.437 28.614,22.067 -3.172,1.281 33.911,-11.884 14.695,17.14 -0.01,0.872 -20.731,22.691 11.378,33.241 0.442,0.875 27.858,7.672 2.504,19.641 -0.682,0.646 -31.195,10.603 -11.381,34.11 -0.456,-0.002 21.804,26.801 -13.46,16.223 -0.449,-0.004 -26.086,-4.608 -25.877,19.373 0.223,0.217 4.835,34.266 -16.378,15.54 0.006,-0.438 -20.192,-30.055 -33.96,-5.772 -13.759,24.282 -24.953,17.199 -26.982,-5.488 -0.881,-1.316 0.921,-23.751 -22.606,-14.38 -0.214,-0.659 -39.582,15.537 -17.834,-18.479 0.003,-0.434 16.868,-19.456 -12.553,-28.672 -0.675,0.21 -35.722,-9.71 -3.621,-20.74 -0.458,0.867 27.821,-10.853 13.814,-29.515 0,0 -33.442,-34.315 10.157,-23.879 0.004,-0.44 22.086,6.319 22.4,-9.6 z"
   id="path13"
   inkscape:connector-curvature="0"
   style="fill:#c61d23" />
		<path
   stroke-miterlimit="10"
   d="m 229.151,253.807 c 24.268,23.946 23.88,62.39 -0.864,85.87 -24.753,23.482 -64.489,23.104 -88.757,-0.84 -24.271,-23.944 -23.883,-62.388 0.867,-85.87 24.748,-23.481 64.483,-23.105 88.754,0.84 z"
   id="path15"
   inkscape:connector-curvature="0"
   style="fill:none;stroke:#ffffff;stroke-miterlimit:10" />
		<ellipse
   cx="184.33701"
   cy="298.677"
   rx="32.199001"
   ry="31.150999"
   id="ellipse17"
   sodipodi:cx="184.33701"
   sodipodi:cy="298.677"
   sodipodi:rx="32.199001"
   sodipodi:ry="31.150999"
   style="fill:#ffffff"
   d="m 216.53601,298.677 c 0,17.20422 -14.41599,31.151 -32.199,31.151 -17.78302,0 -32.19901,-13.94678 -32.19901,-31.151 0,-17.20422 14.41599,-31.151 32.19901,-31.151 17.78301,0 32.199,13.94678 32.199,31.151 z" />
	</g>
</g>
</svg>